# This file uses centimeters as units for non-parametric coordinates.

mtllib mesa.mtl
g default
v 1.000000 2.863799 -3.244972
v 1.000000 -2.863799 -3.244972
v 1.000000 2.863799 3.244972
v 1.000000 -2.863799 3.244972
v -1.000000 2.863799 -3.244972
v -1.000000 -2.863799 -3.244972
v -1.000000 2.863799 3.244972
v -1.000000 -2.863799 3.244972
v 1.000000 1.909199 -3.244972
v 1.000000 0.954600 -3.244972
v 1.000000 0.000000 -3.244972
v 1.000000 -0.954600 -3.244972
v 1.000000 -1.909200 -3.244972
v -1.000000 -1.909199 3.244972
v -1.000000 -0.954600 3.244972
v -1.000000 0.000000 3.244972
v -1.000000 0.954600 3.244972
v -1.000000 1.909200 3.244972
v 1.000000 1.909199 3.244972
v 1.000000 0.954600 3.244972
v 1.000000 0.000000 3.244972
v 1.000000 -0.954600 3.244972
v 1.000000 -1.909200 3.244972
v -1.000000 1.909199 -3.244972
v -1.000000 0.954600 -3.244972
v -1.000000 0.000000 -3.244972
v -1.000000 -0.954600 -3.244972
v -1.000000 -1.909200 -3.244972
v -1.000000 -2.863799 -1.622486
v -1.000000 -2.863799 1.622486
v 1.000000 2.863799 -1.622486
v 1.000000 2.863799 1.622486
v -1.000000 2.863799 1.622486
v -1.000000 2.863799 -1.622486
v 1.000000 -2.863799 1.622486
v 1.000000 -2.863799 -1.622486
v 1.000000 -1.909200 -1.622486
v 1.000000 -1.909200 1.622486
v 1.000000 -0.954600 -1.622486
v 1.000000 -0.954600 1.622486
v 1.000000 0.000000 -1.622486
v 1.000000 0.000000 1.622486
v 1.000000 0.954600 -1.622486
v 1.000000 0.954600 1.622486
v 1.000000 1.909199 -1.622486
v 1.000000 1.909199 1.622486
v -1.000000 -1.909199 1.622486
v -1.000000 -1.909199 -1.622486
v -1.000000 -0.954600 1.622486
v -1.000000 -0.954600 -1.622486
v -1.000000 0.000000 1.622486
v -1.000000 0.000000 -1.622486
v -1.000000 0.954600 1.622486
v -1.000000 0.954600 -1.622486
v -1.000000 1.909200 1.622486
v -1.000000 1.909199 -1.622486
v 1.208127 0.954600 -1.622486
v 1.208127 0.954600 1.622486
v 1.208127 1.909199 -1.622486
v 1.208127 1.909199 1.622486
v 1.324778 -0.954600 -1.622486
v 1.324778 -0.954600 1.622486
v 1.324778 0.000000 -1.622486
v 1.324778 0.000000 1.622486
v -1.000000 -3.807314 1.622486
v -1.000000 -3.807314 3.244972
v 1.000000 -3.807314 -3.244972
v -1.000000 -3.807314 -3.244972
v 1.000000 -3.807314 3.244972
v 1.000000 -3.807314 -1.622486
v -1.000000 -3.807314 -1.622486
v 1.000000 -3.807314 1.622486
v 1.203430 -2.863799 1.622486
v 1.203430 -2.863799 -1.622486
v 1.203430 -1.909200 -1.622486
v 1.203430 -1.909200 1.622486
vt 0.642503 0.239454
vt 0.642503 0.241671
vt 0.638736 0.241671
vt 0.638736 0.239454
vt 0.650036 0.239455
vt 0.650036 0.241671
vt 0.642503 0.237238
vt 0.638736 0.237238
vt 0.653803 0.239455
vt 0.653803 0.241671
vt 0.650036 0.237238
vt 0.642503 0.235022
vt 0.638736 0.235022
vt 0.653803 0.237238
vt 0.650036 0.235022
vt 0.642503 0.232806
vt 0.638736 0.232806
vt 0.653803 0.235022
vt 0.650036 0.232806
vt 0.642503 0.230590
vt 0.638736 0.230590
vt 0.653803 0.232806
vt 0.650036 0.230590
vt 0.642503 0.228373
vt 0.638736 0.228373
vt 0.653803 0.230590
vt 0.650036 0.228373
vt 0.638736 0.226183
vt 0.642503 0.226183
vt 0.653803 0.228373
vt 0.650036 0.226183
vt 0.653803 0.226183
vt 0.938999 0.700322
vt 0.938999 0.699724
vt 0.940015 0.699724
vt 0.940015 0.700322
vt 0.936966 0.700322
vt 0.936966 0.699724
vt 0.938999 0.700920
vt 0.940015 0.700920
vt 0.935950 0.700322
vt 0.935950 0.699724
vt 0.938999 0.701518
vt 0.940015 0.701518
vt 0.935950 0.700920
vt 0.936966 0.700920
vt 0.936966 0.701518
vt 0.938999 0.702116
vt 0.940015 0.702116
vt 0.935950 0.701518
vt 0.938999 0.702714
vt 0.940015 0.702714
vt 0.935950 0.702116
vt 0.936966 0.702116
vt 0.936966 0.702714
vt 0.938999 0.703312
vt 0.940015 0.703312
vt 0.935950 0.702714
vt 0.940015 0.703903
vt 0.938999 0.703903
vt 0.935950 0.703312
vt 0.936966 0.703312
vt 0.936966 0.703903
vt 0.935950 0.703903
vt 0.667181 0.736291
vt 0.649362 0.817629
vt 0.372872 0.757056
vt 0.390691 0.675719
vt 0.663214 0.736205
vt 0.646242 0.816573
vt 0.373047 0.758879
vt 0.390019 0.678511
vt 0.659683 0.741586
vt 0.641236 0.821051
vt 0.371111 0.758344
vt 0.389558 0.678879
vt 0.445361 0.121562
vt 0.399445 0.121562
vt 0.399445 0.084313
vt 0.445361 0.084313
vt 0.445361 0.196061
vt 0.399445 0.196061
vt 0.445361 0.233310
vt 0.399445 0.233310
vt 0.027017 0.255991
vt 0.027017 0.030343
vt 0.041490 0.030343
vt 0.041490 0.255991
vt 0.553469 0.572031
vt 0.553469 0.346382
vt 0.567942 0.346382
vt 0.567942 0.572031
vt 0.010974 0.249947
vt 0.010974 0.024298
vt 0.033559 0.024298
vt 0.033559 0.249947
vt 0.423514 0.572031
vt 0.423514 0.346382
vt 0.446098 0.346382
vt 0.446098 0.572031
vt 0.351503 0.196061
vt 0.397419 0.196061
vt 0.397419 0.233310
vt 0.351503 0.233310
vt 0.351503 0.121562
vt 0.397419 0.121562
vt 0.351503 0.084313
vt 0.397419 0.084313
vt 0.033935 0.234347
vt 0.033935 0.008698
vt 0.048081 0.008698
vt 0.048081 0.234347
vt 0.097686 0.925155
vt 0.097686 0.699506
vt 0.111832 0.699506
vt 0.111832 0.925155
vt 0.638492 0.239454
vt 0.638492 0.241671
vt 0.633849 0.241671
vt 0.633849 0.239455
vt 0.638492 0.237238
vt 0.633849 0.237238
vt 0.638492 0.235022
vt 0.633849 0.235022
vt 0.638492 0.232806
vt 0.633849 0.232806
vt 0.638492 0.230590
vt 0.633849 0.230590
vt 0.638492 0.228373
vt 0.633849 0.228373
vt 0.633849 0.226183
vt 0.638492 0.226183
vt 0.654027 0.239480
vt 0.658670 0.239480
vt 0.658670 0.241671
vt 0.654027 0.241671
vt 0.654027 0.237264
vt 0.658670 0.237264
vt 0.654027 0.235048
vt 0.658670 0.235048
vt 0.654027 0.232832
vt 0.658670 0.232832
vt 0.654027 0.230615
vt 0.658670 0.230615
vt 0.654027 0.228399
vt 0.658670 0.228399
vt 0.654027 0.226183
vt 0.658670 0.226183
vt 0.119124 0.765887
vt 0.119124 0.699506
vt 0.141708 0.699506
vt 0.141708 0.765887
vt 0.148358 0.765887
vt 0.148358 0.699506
vt 0.162504 0.699506
vt 0.162504 0.765887
vt 0.169797 0.765887
vt 0.169797 0.699506
vt 0.184270 0.699506
vt 0.184270 0.765887
vt 0.191235 0.765887
vt 0.191235 0.699506
vt 0.205708 0.699506
vt 0.205708 0.765887
vt 0.212674 0.765887
vt 0.212674 0.699506
vt 0.235258 0.699506
vt 0.235258 0.765887
vt 0.241908 0.991536
vt 0.241908 0.925155
vt 0.256054 0.925155
vt 0.256054 0.991536
vn 0.000000 1.000000 0.000000
vn 0.000000 1.000000 0.000000
vn 0.000000 1.000000 0.000000
vn 0.000000 1.000000 0.000000
vn 0.000000 0.000000 1.000000
vn 0.000000 0.000000 1.000000
vn 0.000000 0.000000 1.000000
vn 0.000000 0.000000 1.000000
vn -1.000000 0.000000 0.000000
vn -1.000000 0.000000 0.000000
vn -1.000000 0.000000 0.000000
vn -1.000000 0.000000 0.000000
vn 0.000000 0.000000 -1.000000
vn 0.000000 0.000000 -1.000000
vn 0.000000 0.000000 -1.000000
vn 0.000000 0.000000 -1.000000
vn 1.000000 0.000000 0.000000
vn 1.000000 0.000000 0.000000
vn 1.000000 0.000000 0.000000
vn 1.000000 0.000000 0.000000
vn 0.000000 0.000000 -1.000000
vn 0.000000 0.000000 -1.000000
vn 0.000000 0.000000 -1.000000
vn 0.000000 0.000000 -1.000000
vn 0.000000 0.000000 -1.000000
vn 0.000000 0.000000 -1.000000
vn 0.000000 0.000000 -1.000000
vn 0.000000 0.000000 -1.000000
vn 0.000000 0.000000 -1.000000
vn 0.000000 0.000000 -1.000000
vn 0.000000 0.000000 -1.000000
vn 0.000000 0.000000 -1.000000
vn 0.000000 0.000000 -1.000000
vn 0.000000 0.000000 -1.000000
vn 0.000000 0.000000 -1.000000
vn 0.000000 0.000000 -1.000000
vn 0.000000 0.000000 -1.000000
vn 0.000000 0.000000 -1.000000
vn 0.000000 0.000000 -1.000000
vn 0.000000 0.000000 -1.000000
vn 0.000000 0.000000 -1.000000
vn 0.000000 0.000000 -1.000000
vn 0.000000 0.000000 -1.000000
vn 0.000000 0.000000 -1.000000
vn 1.000000 0.000000 0.000000
vn 1.000000 0.000000 0.000000
vn 1.000000 0.000000 0.000000
vn 1.000000 0.000000 0.000000
vn 1.000000 0.000000 0.000000
vn 1.000000 0.000000 0.000000
vn 1.000000 0.000000 0.000000
vn 1.000000 0.000000 0.000000
vn 1.000000 0.000000 0.000000
vn 1.000000 0.000000 0.000000
vn 1.000000 0.000000 0.000000
vn 1.000000 0.000000 0.000000
vn 1.000000 0.000000 0.000000
vn 1.000000 0.000000 0.000000
vn 1.000000 0.000000 0.000000
vn 1.000000 0.000000 0.000000
vn 1.000000 0.000000 0.000000
vn 1.000000 0.000000 0.000000
vn 1.000000 0.000000 0.000000
vn 1.000000 0.000000 0.000000
vn -1.000000 0.000000 0.000000
vn -1.000000 0.000000 0.000000
vn -1.000000 0.000000 0.000000
vn -1.000000 0.000000 0.000000
vn -1.000000 0.000000 0.000000
vn -1.000000 0.000000 0.000000
vn -1.000000 0.000000 0.000000
vn -1.000000 0.000000 0.000000
vn -1.000000 0.000000 0.000000
vn -1.000000 0.000000 0.000000
vn -1.000000 0.000000 0.000000
vn -1.000000 0.000000 0.000000
vn -1.000000 0.000000 0.000000
vn -1.000000 0.000000 0.000000
vn -1.000000 0.000000 0.000000
vn -1.000000 0.000000 0.000000
vn -1.000000 0.000000 0.000000
vn -1.000000 0.000000 0.000000
vn -1.000000 0.000000 0.000000
vn -1.000000 0.000000 0.000000
vn 0.000000 0.000000 1.000000
vn 0.000000 0.000000 1.000000
vn 0.000000 0.000000 1.000000
vn 0.000000 0.000000 1.000000
vn 0.000000 0.000000 1.000000
vn 0.000000 0.000000 1.000000
vn 0.000000 0.000000 1.000000
vn 0.000000 0.000000 1.000000
vn 0.000000 0.000000 1.000000
vn 0.000000 0.000000 1.000000
vn 0.000000 0.000000 1.000000
vn 0.000000 0.000000 1.000000
vn 0.000000 0.000000 1.000000
vn 0.000000 0.000000 1.000000
vn 0.000000 0.000000 1.000000
vn 0.000000 0.000000 1.000000
vn 0.000000 0.000000 1.000000
vn 0.000000 0.000000 1.000000
vn 0.000000 0.000000 1.000000
vn 0.000000 0.000000 1.000000
vn -1.000000 0.000000 0.000000
vn -1.000000 0.000000 0.000000
vn -1.000000 0.000000 0.000000
vn -1.000000 0.000000 0.000000
vn -1.000000 0.000000 0.000000
vn -1.000000 0.000000 0.000000
vn -1.000000 0.000000 0.000000
vn -1.000000 0.000000 0.000000
vn -1.000000 0.000000 0.000000
vn -1.000000 0.000000 0.000000
vn -1.000000 0.000000 0.000000
vn -1.000000 0.000000 0.000000
vn -1.000000 0.000000 0.000000
vn -1.000000 0.000000 0.000000
vn -1.000000 0.000000 0.000000
vn -1.000000 0.000000 0.000000
vn -1.000000 0.000000 0.000000
vn -1.000000 0.000000 0.000000
vn -1.000000 0.000000 0.000000
vn -1.000000 0.000000 0.000000
vn -1.000000 0.000000 0.000000
vn -1.000000 0.000000 0.000000
vn -1.000000 0.000000 0.000000
vn -1.000000 0.000000 0.000000
vn -1.000000 0.000000 0.000000
vn -1.000000 0.000000 0.000000
vn -1.000000 0.000000 0.000000
vn -1.000000 0.000000 0.000000
vn -1.000000 0.000000 0.000000
vn -1.000000 0.000000 0.000000
vn -1.000000 0.000000 0.000000
vn -1.000000 0.000000 0.000000
vn -1.000000 0.000000 0.000000
vn -1.000000 0.000000 0.000000
vn -1.000000 0.000000 0.000000
vn -1.000000 0.000000 0.000000
vn -1.000000 0.000000 0.000000
vn -1.000000 0.000000 0.000000
vn -1.000000 0.000000 0.000000
vn -1.000000 0.000000 0.000000
vn 1.000000 0.000000 0.000000
vn 1.000000 0.000000 0.000000
vn 1.000000 0.000000 0.000000
vn 1.000000 0.000000 0.000000
vn 0.000000 1.000000 0.000000
vn 0.000000 1.000000 0.000000
vn 0.000000 1.000000 0.000000
vn 0.000000 1.000000 0.000000
vn 1.000000 0.000000 0.000000
vn 1.000000 0.000000 0.000000
vn 1.000000 0.000000 0.000000
vn 1.000000 0.000000 0.000000
vn 1.000000 0.000000 0.000000
vn 1.000000 0.000000 0.000000
vn 1.000000 0.000000 0.000000
vn 1.000000 0.000000 0.000000
vn 1.000000 0.000000 0.000000
vn 1.000000 0.000000 0.000000
vn 1.000000 0.000000 0.000000
vn 1.000000 0.000000 0.000000
vn 0.000000 0.000000 1.000000
vn 0.000000 0.000000 1.000000
vn 0.000000 0.000000 1.000000
vn 0.000000 0.000000 1.000000
vn 1.000000 0.000000 0.000000
vn 1.000000 0.000000 0.000000
vn 1.000000 0.000000 0.000000
vn 1.000000 0.000000 0.000000
vn 1.000000 0.000000 0.000000
vn 1.000000 0.000000 0.000000
vn 1.000000 0.000000 0.000000
vn 1.000000 0.000000 0.000000
vn 1.000000 0.000000 0.000000
vn 1.000000 0.000000 0.000000
vn 1.000000 0.000000 0.000000
vn 1.000000 0.000000 0.000000
vn 0.000000 0.000000 -1.000000
vn 0.000000 0.000000 -1.000000
vn 0.000000 0.000000 -1.000000
vn 0.000000 0.000000 -1.000000
vn 1.000000 0.000000 0.000000
vn 1.000000 0.000000 0.000000
vn 1.000000 0.000000 0.000000
vn 1.000000 0.000000 0.000000
vn 1.000000 0.000000 0.000000
vn 1.000000 0.000000 0.000000
vn 1.000000 0.000000 0.000000
vn 1.000000 0.000000 0.000000
vn 1.000000 0.000000 0.000000
vn 1.000000 0.000000 0.000000
vn 1.000000 0.000000 0.000000
vn 1.000000 0.000000 0.000000
vn -1.000000 0.000000 0.000000
vn -1.000000 0.000000 0.000000
vn -1.000000 0.000000 0.000000
vn -1.000000 0.000000 0.000000
vn -1.000000 0.000000 0.000000
vn -1.000000 0.000000 0.000000
vn -1.000000 0.000000 0.000000
vn -1.000000 0.000000 0.000000
vn -1.000000 0.000000 0.000000
vn -1.000000 0.000000 0.000000
vn -1.000000 0.000000 0.000000
vn -1.000000 0.000000 0.000000
vn 0.000000 1.000000 0.000000
vn 0.000000 1.000000 0.000000
vn 0.000000 1.000000 0.000000
vn 0.000000 1.000000 0.000000
vn 0.000000 1.000000 0.000000
vn 0.000000 1.000000 0.000000
vn 0.000000 1.000000 0.000000
vn 0.000000 1.000000 0.000000
vn 1.000000 0.000000 0.000000
vn 1.000000 0.000000 0.000000
vn 1.000000 0.000000 0.000000
vn 1.000000 0.000000 0.000000
vn 0.000000 0.000000 1.000000
vn 0.000000 0.000000 1.000000
vn 0.000000 0.000000 1.000000
vn 0.000000 0.000000 1.000000
vn 0.000000 -1.000000 0.000000
vn 0.000000 -1.000000 0.000000
vn 0.000000 -1.000000 0.000000
vn 0.000000 -1.000000 0.000000
vn 0.000000 0.000000 -1.000000
vn 0.000000 0.000000 -1.000000
vn 0.000000 0.000000 -1.000000
vn 0.000000 0.000000 -1.000000
vn 1.000000 0.000000 0.000000
vn 1.000000 0.000000 0.000000
vn 1.000000 0.000000 0.000000
vn 1.000000 0.000000 0.000000
vn 0.000000 1.000000 0.000000
vn 0.000000 1.000000 0.000000
vn 0.000000 1.000000 0.000000
vn 0.000000 1.000000 0.000000
vn 0.000000 -1.000000 0.000000
vn 0.000000 -1.000000 0.000000
vn 0.000000 -1.000000 0.000000
vn 0.000000 -1.000000 0.000000
vn 0.000000 0.000000 -1.000000
vn 0.000000 0.000000 -1.000000
vn 0.000000 0.000000 -1.000000
vn 0.000000 0.000000 -1.000000
vn 0.000000 -1.000000 0.000000
vn 0.000000 -1.000000 0.000000
vn 0.000000 -1.000000 0.000000
vn 0.000000 -1.000000 0.000000
vn 0.000000 -1.000000 0.000000
vn 0.000000 -1.000000 0.000000
vn 0.000000 -1.000000 0.000000
vn 0.000000 -1.000000 0.000000
vn 0.000000 -1.000000 0.000000
vn 0.000000 -1.000000 0.000000
vn 0.000000 -1.000000 0.000000
vn 0.000000 -1.000000 0.000000
vn -1.000000 0.000000 0.000000
vn -1.000000 0.000000 0.000000
vn -1.000000 0.000000 0.000000
vn -1.000000 0.000000 0.000000
vn 0.000000 0.000000 1.000000
vn 0.000000 0.000000 1.000000
vn 0.000000 0.000000 1.000000
vn 0.000000 0.000000 1.000000
vn 1.000000 0.000000 0.000000
vn 1.000000 0.000000 0.000000
vn 1.000000 0.000000 0.000000
vn 1.000000 0.000000 0.000000
vn -1.000000 0.000000 0.000000
vn -1.000000 0.000000 0.000000
vn -1.000000 0.000000 0.000000
vn -1.000000 0.000000 0.000000
vn 1.000000 0.000000 0.000000
vn 1.000000 0.000000 0.000000
vn 1.000000 0.000000 0.000000
vn 1.000000 0.000000 0.000000
vn 1.000000 0.000000 0.000000
vn 1.000000 0.000000 0.000000
vn 1.000000 0.000000 0.000000
vn 1.000000 0.000000 0.000000
vn 0.000000 1.000000 0.000000
vn 0.000000 1.000000 0.000000
vn 0.000000 1.000000 0.000000
vn 0.000000 1.000000 0.000000
vn 0.000000 -1.000000 0.000000
vn 0.000000 -1.000000 0.000000
vn 0.000000 -1.000000 0.000000
vn 0.000000 -1.000000 0.000000
vn 0.000000 0.000000 1.000000
vn 0.000000 0.000000 1.000000
vn 0.000000 0.000000 1.000000
vn 0.000000 0.000000 1.000000
s off
g mesaNoche:Mesh
usemtl mesaNoche:Material
f 32/77/1 33/78/2 7/79/3 3/80/4
f 19/117/5 3/118/6 7/119/7 18/120/8
f 56/1/9 34/2/10 5/3/11 24/4/12
f 6/133/13 2/134/14 67/135/15 68/136/16
f 46/33/17 32/34/18 3/35/19 19/36/20
f 24/145/21 5/147/22 1/148/23 9/146/24
f 6/133/25 28/137/26 13/138/27 2/134/28
f 28/137/29 27/139/30 12/140/31 13/138/32
f 27/139/33 26/141/34 11/142/35 12/140/36
f 26/141/37 25/143/38 10/144/39 11/142/40
f 25/143/41 24/145/42 9/146/43 10/144/44
f 35/56/45 38/51/46 23/52/47 4/57/48
f 38/51/49 40/48/50 22/49/51 23/52/52
f 40/48/53 42/43/54 21/44/55 22/49/56
f 42/43/57 44/39/58 20/40/59 21/44/60
f 44/39/61 46/33/62 19/36/63 20/40/64
f 29/24/65 48/20/66 28/21/67 6/25/68
f 48/20/69 50/16/70 27/17/71 28/21/72
f 50/16/73 52/12/74 26/13/75 27/17/76
f 52/12/77 54/7/78 25/8/79 26/13/80
f 54/7/81 56/1/82 24/4/83 25/8/84
f 4/129/85 23/127/86 14/128/87 8/130/88
f 23/127/89 22/125/90 15/126/91 14/128/92
f 22/125/93 21/123/94 16/124/95 15/126/96
f 21/123/97 20/121/98 17/122/99 16/124/100
f 20/121/101 19/117/102 18/120/103 17/122/104
f 17/14/105 18/9/106 55/5/107 53/11/108
f 53/11/109 55/5/110 56/1/111 54/7/112
f 16/18/113 17/14/114 53/11/115 51/15/116
f 51/15/117 53/11/118 54/7/119 52/12/120
f 15/22/121 16/18/122 51/15/123 49/19/124
f 49/19/125 51/15/126 52/12/127 50/16/128
f 14/26/129 15/22/130 49/19/131 47/23/132
f 47/23/133 49/19/134 50/16/135 48/20/136
f 8/30/137 14/26/138 47/23/139 30/27/140
f 30/27/141 47/23/142 48/20/143 29/24/144
f 10/45/145 9/41/146 45/37/147 43/46/148
f 45/85/149 46/86/150 60/87/151 59/88/152
f 11/50/153 10/45/154 43/46/155 41/47/156
f 41/47/157 43/46/158 44/39/159 42/43/160
f 12/53/161 11/50/162 41/47/163 39/54/164
f 42/149/165 40/150/166 62/151/167 64/152/168
f 13/58/169 12/53/170 39/54/171 37/55/172
f 37/55/173 39/54/174 40/48/175 38/51/176
f 2/61/177 13/58/178 37/55/179 36/62/180
f 36/153/181 37/154/182 75/155/183 74/156/184
f 9/41/185 1/42/186 31/38/187 45/37/188
f 45/37/189 31/38/190 32/34/191 46/33/192
f 35/56/193 4/57/194 69/59/195 72/60/196
f 30/27/197 29/24/198 71/29/199 65/31/200
f 18/9/201 7/10/202 33/6/203 55/5/204
f 55/5/205 33/6/206 34/2/207 56/1/208
f 1/83/209 5/84/210 34/82/211 31/81/212
f 31/81/213 34/82/214 33/78/215 32/77/216
f 57/65/217 59/66/218 60/67/219 58/68/220
f 46/157/221 44/158/222 58/159/223 60/160/224
f 44/89/225 43/90/226 57/91/227 58/92/228
f 43/161/229 45/162/230 59/163/231 57/164/232
f 61/69/233 63/70/234 64/71/235 62/72/236
f 41/93/237 42/94/238 64/95/239 63/96/240
f 40/97/241 39/98/242 61/99/243 62/100/244
f 39/165/245 41/166/246 63/167/247 61/168/248
f 65/101/249 72/102/250 69/103/251 66/104/252
f 68/107/253 67/108/254 70/106/255 71/105/256
f 71/105/257 70/106/258 72/102/259 65/101/260
f 29/24/261 6/25/262 68/28/263 71/29/264
f 4/129/265 8/130/266 66/131/267 69/132/268
f 36/62/269 35/56/270 72/60/271 70/63/272
f 8/30/273 30/27/274 65/31/275 66/32/276
f 2/61/277 36/62/278 70/63/279 67/64/280
f 74/73/281 75/74/282 76/75/283 73/76/284
f 37/109/285 38/110/286 76/111/287 75/112/288
f 35/113/289 36/114/290 74/115/291 73/116/292
f 38/169/293 35/170/294 73/171/295 76/172/296
