# This file uses centimeters as units for non-parametric coordinates.

mtllib caja.mtl
g default
v -1.849840 -0.496539 2.308300
v -1.802178 0.120976 1.736338
v -1.849840 -0.496539 -2.308300
v -1.802178 0.120976 -1.736338
v 1.849840 -0.496539 2.308300
v 1.677393 -0.049654 2.093115
v 1.849840 -0.496539 -2.308300
v 1.677393 -0.049654 -2.093115
v -1.849840 0.496539 2.308300
v -1.849840 0.496539 -2.308300
v 1.849840 0.496539 -2.308300
v 1.849840 0.496539 2.308300
v -1.724493 4.527837 2.308300
v -1.724493 4.527837 -2.308300
v -1.623482 4.278263 1.736338
v -1.623482 4.278263 -1.736338
v -1.677393 -0.049654 2.093115
v -1.677393 -0.049654 -2.093115
v -1.360143 4.353455 2.093115
v -1.360143 4.353455 -2.093115
vt 0.634835 0.267116
vt 0.634835 0.340875
vt 0.640285 0.261667
vt 0.640285 0.261667
vt 0.634835 0.267116
vt 0.640285 0.346325
vt 0.634835 0.340875
vt 0.640285 0.346325
vt 0.634835 0.335060
vt 0.634835 0.272932
vt 0.634835 0.272932
vt 0.634835 0.335060
vt 0.492561 0.123792
vt 0.755771 0.526011
vt 0.262424 0.526011
vt 0.331358 0.123792
vt 0.755771 0.956811
vt 0.262424 0.956811
vt 0.495099 0.123792
vt 0.529775 0.123792
vt 0.529775 0.284995
vt 0.495099 0.284995
vt 0.649570 0.440036
vt 0.649570 0.293861
vt 0.668642 0.286347
vt 0.668642 0.447549
vt 0.532058 0.123792
vt 0.661243 0.123792
vt 0.661243 0.284995
vt 0.532058 0.284995
vt 0.647492 0.432522
vt 0.530350 0.432522
vt 0.530350 0.286347
vt 0.647492 0.286347
vt 0.528272 0.429771
vt 0.493596 0.429771
vt 0.493596 0.300586
vt 0.528272 0.300586
vt 0.456842 0.300586
vt 0.491518 0.300586
vt 0.491518 0.429771
vt 0.456842 0.429771
vt 0.435692 0.423750
vt 0.435692 0.306607
vt 0.454764 0.300586
vt 0.454764 0.429771
vt 0.433615 0.306607
vt 0.433615 0.423750
vt 0.414543 0.429771
vt 0.414543 0.300586
vn -1.000000 0.000000 0.000000
vn -1.000000 0.000000 0.000000
vn -1.000000 0.000000 0.000000
vn -1.000000 0.000000 0.000000
vn 0.000000 0.000000 -1.000000
vn 0.000000 0.000000 -1.000000
vn 0.000000 0.000000 -1.000000
vn 0.000000 0.000000 -1.000000
vn 1.000000 0.000000 0.000000
vn 1.000000 0.000000 0.000000
vn 1.000000 0.000000 0.000000
vn 1.000000 0.000000 0.000000
vn 0.000000 0.000000 1.000000
vn 0.000000 0.000000 1.000000
vn 0.000000 0.000000 1.000000
vn 0.000000 0.000000 1.000000
vn 0.000000 -1.000000 0.000000
vn 0.000000 -1.000000 0.000000
vn 0.000000 -1.000000 0.000000
vn 0.000000 -1.000000 0.000000
vn 0.000000 1.000000 0.000000
vn 0.000000 1.000000 0.000000
vn 0.000000 1.000000 0.000000
vn 0.000000 1.000000 0.000000
vn 0.599192 -0.031400 -0.799989
vn 0.599192 -0.031400 -0.799989
vn 0.599192 -0.031400 -0.799989
vn 0.599192 -0.031400 -0.799989
vn 0.000000 0.366593 0.930381
vn 0.000000 0.366593 0.930381
vn 0.000000 0.366593 0.930381
vn 0.000000 0.366593 0.930381
vn -0.953593 0.301098 0.000000
vn -0.953593 0.301098 0.000000
vn -0.953593 0.301098 0.000000
vn -0.953593 0.301098 0.000000
vn 0.000000 0.366593 -0.930381
vn 0.000000 0.366593 -0.930381
vn 0.000000 0.366593 -0.930381
vn 0.000000 0.366593 -0.930381
vn 0.431707 0.902014 0.000000
vn 0.431707 0.902014 0.000000
vn 0.431707 0.902014 0.000000
vn 0.431707 0.902014 0.000000
vn -0.999516 0.031101 0.000000
vn -0.999516 0.031101 0.000000
vn -0.999516 0.031101 0.000000
vn -0.999516 0.031101 0.000000
vn 0.599192 -0.031400 0.799989
vn 0.599192 -0.031400 0.799989
vn 0.599192 -0.031400 0.799989
vn 0.599192 -0.031400 0.799989
vn 0.999079 -0.042899 0.000000
vn 0.999079 -0.042899 0.000000
vn 0.999079 -0.042899 0.000000
vn 0.999079 -0.042899 0.000000
vn 0.807190 0.590292 0.000000
vn 0.807190 0.590292 0.000000
vn 0.807190 0.590292 0.000000
vn 0.807190 0.590292 0.000000
vn 0.274589 -0.961562 0.000000
vn 0.274589 -0.961562 0.000000
vn 0.274589 -0.961562 0.000000
vn 0.274589 -0.961562 0.000000
vn 0.874487 -0.050699 0.482393
vn 0.874487 -0.050699 0.482393
vn 0.874487 -0.050699 0.482393
vn 0.874487 -0.050699 0.482393
vn 0.874487 -0.050699 -0.482393
vn 0.874487 -0.050699 -0.482393
vn 0.874487 -0.050699 -0.482393
vn 0.874487 -0.050699 -0.482393
s off
g Mesh
usemtl lambert2SG
f 1/13/1 9/14/2 10/15/3 3/16/4
f 3/35/5 10/36/6 11/37/7 7/38/8
f 7/19/9 11/20/10 12/21/11 5/22/12
f 5/39/13 12/40/14 9/41/15 1/42/16
f 3/27/17 7/28/18 5/29/19 1/30/20
f 8/31/21 18/32/22 17/33/23 6/34/24
f 18/1/25 10/3/26 14/4/27 20/5/28
f 18/43/29 8/44/30 11/45/31 10/46/32
f 8/23/33 6/24/34 12/25/35 11/26/36
f 6/47/37 17/48/38 9/49/39 12/50/40
f 19/7/41 20/5/42 14/4/43 13/8/44
f 10/15/45 9/14/46 13/17/47 14/18/48
f 9/6/49 17/2/50 19/7/51 13/8/52
f 2/9/53 4/10/54 16/11/55 15/12/56
f 4/10/57 2/9/58 17/2/59 18/1/60
f 15/12/61 16/11/62 20/5/63 19/7/64
f 16/11/65 4/10/66 18/1/67 20/5/68
f 2/9/69 15/12/70 19/7/71 17/2/72
